<svg width="55" height="16" viewBox="0 0 55 16" fill="none" xmlns="http://www.w3.org/2000/svg">
<g clip-path="url(#clip0)">
<path d="M42.6177 0L38.1883 4.45858C37.3121 5.34053 37.9326 6.84853 39.1717 6.84853H48.8254C50.6909 6.84853 52.2032 8.37076 52.2032 10.2485C52.2032 12.1263 50.6909 13.6485 48.8254 13.6485H39.6855C37.82 13.6485 36.3077 12.1263 36.3077 10.2485C36.3077 7.04528 33.728 4.44853 30.5457 4.44853H30.347C27.2311 4.44853 24.693 6.93788 24.5882 10.0485H24.5849C24.5849 12.0854 23.0253 13.6485 21.2071 13.6485C19.3889 13.6485 17.8293 12.0854 17.8293 10.0485H17.826C17.7212 6.93788 15.183 4.44853 12.0672 4.44853H10.6764V6.84853H12.0672C13.9327 6.84853 15.445 8.37076 15.445 10.2485C15.445 12.1263 13.9327 13.6485 12.0672 13.6485H6.30514V16.0485H12.0672C13.9462 16.0485 15.6151 15.1433 16.6669 13.7424C17.7137 15.1388 19.3445 16.0485 21.2071 16.0485C23.0697 16.0485 24.7005 15.1388 25.7472 13.7424C26.7991 15.1433 28.468 16.0485 30.347 16.0485H31.5391V13.6485H30.347C28.4815 13.6485 26.9692 12.1263 26.9692 10.2485C26.9692 8.37076 28.4815 6.84853 30.347 6.84853H30.5457C32.4112 6.84853 33.9234 8.37076 33.9234 10.2485C33.9234 13.4518 36.5032 16.0485 39.6855 16.0485H48.8254C52.0077 16.0485 54.5875 13.4518 54.5875 10.2485C54.5875 7.04528 52.0077 4.44853 48.8254 4.44853H41.5702L44.3037 1.69706L42.6177 0Z" fill="#A1A3A8"/>
<path d="M0.94043 16.0485V1.24853H3.32474V16.0485H0.94043Z" fill="#A1A3A8"/>
</g>
<defs>
<clipPath id="clip0">
<rect width="53.6471" height="16" fill="white" transform="translate(0.94043)"/>
</clipPath>
</defs>
</svg>
