<svg width="55" height="16" viewBox="0 0 55 16" fill="none" xmlns="http://www.w3.org/2000/svg">
<g clip-path="url(#clip0)">
<path d="M51.7894 0.212891H50.1813C50.1415 0.212891 50.1016 0.226202 50.075 0.252824C50.0484 0.279446 50.0352 0.31938 50.0352 0.372624C50.0352 0.412558 50.0352 0.43918 50.0484 0.465802C50.0617 0.492425 50.0617 0.519047 50.075 0.532358H50.7262V2.28943C50.7262 2.35599 50.7395 2.40923 50.7794 2.43585C50.8059 2.46247 50.8724 2.47579 50.9388 2.47579C50.9787 2.47579 51.0053 2.47579 51.0452 2.46247C51.0717 2.44916 51.0983 2.44916 51.1249 2.44916V0.532358H51.683C51.7761 0.532358 51.8292 0.479114 51.8292 0.359313C51.8292 0.332691 51.8292 0.292758 51.8159 0.266135C51.8159 0.252824 51.8026 0.226202 51.7894 0.212891Z" fill="#A1A3A8"/>
<path d="M54.2213 2.15633C54.2081 2.03653 54.2081 1.91673 54.1948 1.77031C54.1815 1.62388 54.1682 1.49077 54.1549 1.33104C54.1416 1.18462 54.1283 1.03819 54.115 0.905081C54.1017 0.77197 54.0884 0.652169 54.0752 0.558991C54.0619 0.452502 54.0486 0.385947 54.0486 0.346013C54.0353 0.292768 54.0087 0.266146 53.9688 0.239524C53.929 0.212902 53.8625 0.19959 53.7828 0.19959C53.7429 0.19959 53.7031 0.19959 53.6632 0.212902C53.6233 0.226213 53.5967 0.239524 53.5702 0.239524C53.5303 0.319391 53.5037 0.412569 53.4638 0.505747C53.424 0.598925 53.3841 0.705414 53.331 0.825214C53.2778 0.931704 53.2379 1.0515 53.1848 1.1713C53.1316 1.2911 53.0917 1.41091 53.0386 1.53071H53.0253C52.9854 1.43753 52.9456 1.34435 52.9057 1.25117C52.8658 1.14468 52.826 1.0515 52.7861 0.945015C52.7462 0.838526 52.7064 0.745347 52.6665 0.638858C52.6266 0.532369 52.5867 0.439191 52.5469 0.359324C52.5203 0.30608 52.4804 0.266146 52.4406 0.226213C52.3874 0.19959 52.3342 0.186279 52.2545 0.186279C52.1881 0.186279 52.1349 0.19959 52.0818 0.212902C52.0419 0.239524 52.002 0.252835 51.9887 0.279457C51.9754 0.412569 51.9621 0.532369 51.9489 0.665481C51.9356 0.798592 51.9356 0.931704 51.9223 1.07813C51.909 1.22455 51.909 1.35766 51.8957 1.49077C51.8824 1.62388 51.8824 1.74368 51.8691 1.86348C51.8691 1.96997 51.8558 2.07646 51.8558 2.15633C51.8558 2.2362 51.8558 2.28944 51.8558 2.32937C51.8558 2.43586 51.9223 2.48911 52.0552 2.48911C52.095 2.48911 52.1216 2.48911 52.1482 2.4758C52.1748 2.46249 52.2014 2.46249 52.2279 2.46249C52.2412 2.28944 52.2412 2.14302 52.2545 1.9966C52.2678 1.85017 52.2678 1.70375 52.2811 1.57064C52.2944 1.43753 52.2944 1.2911 52.2944 1.14468C52.3077 0.998259 52.3077 0.838526 52.3077 0.665481H52.321C52.3741 0.798592 52.4406 0.971637 52.5203 1.1713C52.6 1.37097 52.7064 1.61057 52.8127 1.86348C52.826 1.90342 52.8525 1.91673 52.8924 1.94335C52.9323 1.95666 52.9721 1.96997 53.0253 1.96997C53.0652 1.96997 53.105 1.95666 53.1449 1.95666C53.1715 1.94335 53.2114 1.93004 53.2246 1.91673C53.3442 1.61057 53.4506 1.35766 53.5303 1.1713C53.61 0.971637 53.6765 0.811903 53.7164 0.692103H53.7296C53.7296 0.77197 53.7429 0.878459 53.7429 1.01157C53.7429 1.13137 53.7562 1.26448 53.7695 1.4109C53.7828 1.55733 53.7828 1.70375 53.7961 1.8768C53.8094 2.03653 53.8094 2.20957 53.8227 2.36931C53.8227 2.43586 53.8492 2.4758 53.8891 2.50242C53.929 2.52904 53.9688 2.52904 54.022 2.52904C54.0619 2.52904 54.1017 2.52904 54.1283 2.51573C54.1549 2.50242 54.1948 2.48911 54.2213 2.4758C54.2346 2.36931 54.2346 2.27613 54.2213 2.15633Z" fill="#A1A3A8"/>
<path d="M10.2356 1.38436C9.18576 0.46589 7.57774 0 5.39828 0C4.76039 0 4.06935 0.0399334 3.35172 0.106489C2.63409 0.173045 2.00949 0.306156 1.4912 0.479201C1.21213 0.559068 0.986206 0.678869 0.826733 0.838602C0.667261 0.998336 0.587524 1.22463 0.587524 1.51747V14.5225C0.587524 14.975 0.707129 15.2945 0.919759 15.4942C1.14568 15.6938 1.51778 15.787 2.03607 15.787C2.30186 15.787 2.54107 15.7604 2.76698 15.7205C2.97962 15.6805 3.16567 15.6273 3.29856 15.5874V10.3561H5.53118C7.60432 10.3561 9.17247 9.87687 10.2223 8.93178C11.2855 7.98669 11.8038 6.72213 11.8038 5.1381C11.8038 3.55408 11.2855 2.31614 10.2356 1.38436ZM8.09603 7.41431C7.43156 7.90682 6.52788 8.15973 5.37171 8.15973H3.28527V2.39601C3.57764 2.34276 3.92316 2.30283 4.29526 2.2629C4.66737 2.23627 5.05276 2.20965 5.43815 2.20965C6.60762 2.20965 7.5113 2.44925 8.14919 2.91514C8.77379 3.39434 9.09274 4.12646 9.09274 5.1381C9.09274 6.14975 8.7605 6.90849 8.09603 7.41431Z" fill="#A1A3A8"/>
<path d="M13.8238 4.04663C13.558 4.04663 13.3188 4.07325 13.1062 4.1265C12.8935 4.17974 12.7208 4.21968 12.5879 4.2463V14.5624C12.5879 15.0017 12.7075 15.3079 12.9334 15.4942C13.1726 15.6806 13.5314 15.7738 14.0099 15.7738C14.2756 15.7738 14.5149 15.7471 14.7275 15.7072C14.9401 15.6673 15.0996 15.614 15.2192 15.5741V5.28457C15.2192 4.83199 15.1129 4.51252 14.8737 4.32617C14.661 4.13981 14.3022 4.04663 13.8238 4.04663Z" fill="#A1A3A8"/>
<path d="M26.143 4.57906C25.2261 3.84695 23.9503 3.48755 22.3157 3.48755C21.3589 3.48755 20.5083 3.60735 19.7508 3.83364C18.9933 4.07324 18.382 4.32615 17.9169 4.619C17.5714 4.84529 17.3189 5.08489 17.1727 5.32449C17.0265 5.56409 16.9468 5.87024 16.9468 6.25627V14.5757C16.9468 15.015 17.0664 15.3212 17.2923 15.5075C17.5315 15.6939 17.8903 15.787 18.3687 15.787C18.6212 15.787 18.8472 15.7604 19.0598 15.7205C19.2724 15.6806 19.4319 15.6273 19.5515 15.5874V6.32282C19.8837 6.13647 20.2824 5.97673 20.7475 5.817C21.2127 5.67058 21.731 5.59071 22.3157 5.59071C23.0998 5.59071 23.7244 5.77707 24.1895 6.16309C24.6546 6.54911 24.8805 7.14811 24.8805 7.9734V14.5491C24.8805 14.9884 25.0001 15.2945 25.2261 15.4809C25.4653 15.6672 25.8241 15.7604 26.3025 15.7604C26.555 15.7604 26.7942 15.7338 27.0068 15.6939C27.2195 15.6539 27.3922 15.6007 27.5118 15.5608V7.89354C27.5251 6.416 27.0733 5.31118 26.143 4.57906Z" fill="#A1A3A8"/>
<path d="M50.9809 5.17795C50.4626 4.63219 49.838 4.21955 49.0938 3.91339C48.3496 3.62054 47.539 3.47412 46.6486 3.47412C45.7582 3.47412 44.9475 3.62054 44.2033 3.91339C43.4591 4.20623 42.8345 4.61888 42.3162 5.16464C41.7979 5.69708 41.3993 6.36264 41.1069 7.13469C40.8145 7.90673 40.6816 8.77196 40.6816 9.73036C40.6816 10.6888 40.8278 11.554 41.1069 12.326C41.386 13.0981 41.7847 13.7503 42.3029 14.2961C42.8079 14.8285 43.4325 15.2545 44.1767 15.5473C44.921 15.8402 45.7316 15.9866 46.6486 15.9866C47.5523 15.9866 48.3762 15.8402 49.1204 15.5473C49.8646 15.2545 50.4892 14.8418 50.9942 14.2961C51.4992 13.7636 51.8979 13.0981 52.1903 12.326C52.4826 11.554 52.6155 10.6888 52.6155 9.73036C52.6155 8.77196 52.4693 7.90673 52.1903 7.148C51.8979 6.37595 51.4992 5.72371 50.9809 5.17795ZM49.0672 12.7653C48.4958 13.4841 47.6851 13.8302 46.6486 13.8302C45.612 13.8302 44.8014 13.4708 44.2299 12.7653C43.6585 12.0465 43.3794 11.0349 43.3794 9.73036C43.3794 8.41256 43.6718 7.40091 44.2565 6.68211C44.8412 5.96331 45.6386 5.6039 46.6486 5.6039C47.6719 5.6039 48.4692 5.96331 49.054 6.69542C49.6387 7.42753 49.9178 8.43918 49.9178 9.73036C49.9178 11.0349 49.6387 12.0465 49.0672 12.7653Z" fill="#A1A3A8"/>
<path d="M38.2243 0.0266113C37.9718 0.0266113 37.7326 0.0532336 37.52 0.106478C37.3073 0.159723 37.1346 0.199656 37.015 0.226279V4.05989C36.6827 3.88684 36.2973 3.75373 35.8455 3.64724C35.407 3.54075 34.9285 3.48751 34.4235 3.48751C33.5996 3.48751 32.8288 3.60731 32.1245 3.84691C31.4069 4.08651 30.7823 4.47253 30.2507 4.97836C29.7191 5.48418 29.2938 6.14974 28.9749 6.94841C28.6692 7.74708 28.5098 8.69217 28.5098 9.78368C28.5098 10.8353 28.6559 11.767 28.9616 12.5391C29.2673 13.3244 29.6925 13.9634 30.2507 14.4825C30.8088 15.0017 31.4733 15.3744 32.2574 15.614C33.0415 15.8536 33.9185 15.9734 34.8754 15.9734C35.7259 15.9734 36.4834 15.8802 37.1479 15.6672C37.8123 15.4675 38.3306 15.2413 38.716 14.9883C39.035 14.7887 39.2742 14.5757 39.4204 14.3494C39.5665 14.1231 39.6463 13.8303 39.6463 13.4842V1.23793C39.6463 0.798658 39.5267 0.492501 39.3007 0.306145C39.0748 0.119789 38.7027 0.0266113 38.2243 0.0266113ZM37.0416 13.2845C36.7758 13.4309 36.4701 13.564 36.1246 13.6705C35.7791 13.777 35.3538 13.8303 34.8488 13.8303C33.7458 13.8303 32.8554 13.5108 32.1909 12.8719C31.5265 12.2329 31.1942 11.208 31.1942 9.79699C31.1942 9.03826 31.2873 8.39932 31.4733 7.86688C31.6594 7.33443 31.9119 6.89516 32.2308 6.56238C32.5497 6.21629 32.9218 5.97669 33.3471 5.81696C33.7724 5.67054 34.2375 5.59067 34.7425 5.59067C35.2076 5.59067 35.6462 5.65723 36.0316 5.79034C36.417 5.92345 36.7492 6.08318 37.0416 6.26954V13.2845Z" fill="#A1A3A8"/>
<path d="M14.8337 0.838675L14.3021 0.306229C14.1692 0.173118 14.0098 0.119873 13.837 0.119873C13.6642 0.119873 13.5048 0.173118 13.3719 0.292918L12.8403 0.825364L12.3087 1.35781C12.1758 1.49092 12.1227 1.65066 12.1227 1.8237C12.1227 1.99674 12.1891 2.15648 12.3087 2.28959L12.8403 2.82204L13.3719 3.35448C13.5048 3.48759 13.6642 3.55415 13.837 3.55415C14.0098 3.55415 14.1692 3.48759 14.3021 3.35448L14.8337 2.82204L15.3653 2.28959C15.4982 2.15648 15.5513 1.99674 15.5513 1.8237C15.5513 1.65066 15.4849 1.49092 15.3653 1.35781L14.8337 0.838675Z" fill="#A1A3A8"/>
</g>
<defs>
<clipPath id="clip0">
<rect width="53.6471" height="16" fill="white" transform="translate(0.587524)"/>
</clipPath>
</defs>
</svg>
