<svg width="85" height="20" viewBox="0 0 85 20" fill="none" xmlns="http://www.w3.org/2000/svg">
<g clip-path="url(#clip0)">
<path fill-rule="evenodd" clip-rule="evenodd" d="M8.81552 12.872H4.32051C3.64409 12.872 3.09556 12.3234 3.09556 11.6469L3.09556 8.3758C3.09556 7.69949 3.64304 7.15191 4.31945 7.15085H8.81552V12.872ZM11.1481 -3.8147e-06H9.34394C9.05223 -3.8147e-06 8.81548 0.236742 8.81548 0.528448V4.29112H4.17674C3.9104 4.29112 3.6504 4.31755 3.39886 4.36712C1.5831 4.80584 0.234497 6.44181 0.234497 8.39085L0.234497 11.5932C0.234497 13.8792 2.0883 15.733 4.37438 15.733H7.15298C7.26607 15.733 7.37493 15.6971 7.46476 15.6306C7.48696 15.6157 7.5081 15.5978 7.52712 15.5787L7.52818 15.5778L8.81654 14.284V15.2046C8.81654 15.4952 9.05434 15.733 9.34499 15.733H11.1058C11.3679 15.733 11.5877 15.565 11.6681 15.3325C11.6744 15.304 11.6765 15.2743 11.6765 15.2437L11.6765 0.528448C11.6765 0.236742 11.4398 -3.8147e-06 11.1481 -3.8147e-06ZM25.9788 12.8735L21.4817 12.8735C20.8053 12.8724 20.2578 12.325 20.2578 11.6486V8.37744C20.2578 7.70103 20.8064 7.15239 21.4828 7.15239H25.9788V12.8735ZM28.268 4.29972H26.5072C26.2155 4.29972 25.9788 4.53636 25.9788 4.82817V5.72125L25.9703 5.71058L24.7137 4.45403C24.6291 4.36948 24.4611 4.29972 24.3406 4.29972H21.5366C19.2505 4.29972 17.3978 6.15247 17.3978 8.43855V11.642C17.3978 13.5909 18.7464 15.227 20.5622 15.6656C20.8137 15.7153 21.0737 15.7417 21.34 15.7417L25.9788 15.7417V15.8104C25.9788 16.0366 25.9333 16.2627 25.8245 16.4614C25.592 16.8873 25.1396 17.176 24.6196 17.176H21.097C20.355 17.176 19.9777 18.0712 20.4998 18.5985C20.9078 19.0139 21.3231 19.4376 21.6296 19.7505C21.7892 19.9112 22.0017 20 22.2268 20H24.6291C25.1343 20 25.6173 19.9123 26.0633 19.7505C27.6963 19.1587 28.8388 17.5818 28.8388 15.73V4.78907C28.8388 4.75842 28.8366 4.72872 28.8303 4.70029C28.75 4.46777 28.5301 4.29972 28.268 4.29972ZM13.6352 4.29152L15.4393 4.29152C15.7312 4.29152 15.9677 4.52805 15.9677 4.81997L15.9677 15.2051C15.9677 15.4969 15.7312 15.7335 15.4393 15.7335H13.6352C13.3432 15.7335 13.1067 15.4969 13.1067 15.2051L13.1067 4.81997C13.1067 4.52805 13.3432 4.29152 13.6352 4.29152ZM15.4393 0.000818253H13.6352C13.3432 0.000818253 13.1067 0.237354 13.1067 0.52927V2.33287C13.1067 2.62479 13.3432 2.86132 13.6352 2.86132H15.4393C15.7312 2.86132 15.9677 2.62479 15.9677 2.33287V0.52927C15.9677 0.237354 15.7312 0.000818253 15.4393 0.000818253ZM30.7975 4.29152H32.6016C32.8935 4.29152 33.1301 4.52805 33.1301 4.81997V15.2051C33.1301 15.4969 32.8935 15.7335 32.6016 15.7335H30.7975C30.5055 15.7335 30.269 15.4969 30.269 15.2051V4.81997C30.269 4.52805 30.5055 4.29152 30.7975 4.29152ZM52.2508 8.58192C51.959 8.58192 51.7224 8.81846 51.7224 9.11037V10.9145C51.7224 11.2064 51.959 11.443 52.2508 11.443H58.3454C58.6372 11.443 58.8738 11.2064 58.8738 10.9145V9.11037C58.8738 8.81846 58.6372 8.58192 58.3454 8.58192H52.2508ZM30.7975 0.000818253H32.6016C32.8935 0.000818253 33.1301 0.237354 33.1301 0.52927V2.33287C33.1301 2.62479 32.8935 2.86132 32.6016 2.86132H30.7975C30.5055 2.86132 30.269 2.62479 30.269 2.33287V0.52927C30.269 0.237354 30.5055 0.000818253 30.7975 0.000818253ZM41.8622 4.29102H39.0836C38.9705 4.29102 38.8617 4.32695 38.7719 4.39354C38.7497 4.40833 38.7285 4.4263 38.7095 4.44533L38.7084 4.44638L37.4163 5.74003L37.4201 4.81947C37.4201 4.52882 37.1823 4.29102 36.8916 4.29102H35.1308C34.8687 4.29102 34.6489 4.45907 34.5686 4.69158C34.5622 4.72012 34.5601 4.74971 34.5601 4.78036V15.3156C34.5601 15.5461 34.7471 15.733 34.9776 15.733L36.9988 15.733C37.2294 15.733 37.4163 15.5461 37.4163 15.3156V7.15195H41.9161C42.5927 7.15195 43.1411 7.70048 43.1411 8.377V15.3156C43.1411 15.5461 43.328 15.733 43.5586 15.733H45.573C45.8036 15.733 45.9905 15.5461 45.9905 15.3156C45.9979 15.2796 46.0021 15.2426 46.0021 15.2046V8.4309C46.0021 6.14451 44.1486 4.29102 41.8622 4.29102ZM77.9962 4.29102H84.0882C84.38 4.29102 84.6167 4.52755 84.6167 4.81947V6.61726C84.6167 6.90907 84.38 7.14571 84.0882 7.14571H80.3278V15.3156C80.3278 15.5461 80.1408 15.733 79.9103 15.733H77.8895C77.6589 15.733 77.472 15.5461 77.472 15.3156V7.15195L70.26 7.15195C70.0988 7.15195 69.9464 7.22572 69.8462 7.35191L67.7344 10.0117L71.5594 14.8298C71.8238 15.1629 71.6363 15.7325 71.2623 15.732L68.9029 15.7293C68.7918 15.7292 68.6852 15.6735 68.6067 15.5746L65.9624 12.2437L63.3178 15.5745C63.2396 15.6739 63.1328 15.7288 63.0218 15.7298L60.6618 15.732C60.6545 15.732 60.6475 15.7311 60.6406 15.7302C60.6366 15.7297 60.6326 15.7292 60.6286 15.7288H51.5309C49.2681 15.7288 47.4343 13.8951 47.4343 11.6323V8.3918C47.4343 8.01237 47.4861 7.64351 47.5834 7.29473C48.0642 5.56564 49.6517 4.29419 51.5319 4.29419H58.3447C58.6364 4.29419 58.8732 4.53094 58.8732 4.82264V6.61937C58.8732 6.91108 58.6364 7.14782 58.3447 7.14782H51.5319C50.845 7.14782 50.288 7.70481 50.288 8.3918V11.6312C50.288 12.315 50.8481 12.8752 51.5319 12.8752H61.9164L64.1901 10.0114L60.3652 5.1934C60.1009 4.86058 60.2881 4.29134 60.6618 4.29134H63.0191C63.1304 4.29134 63.2371 4.34693 63.3158 4.44617L65.9622 7.77954L68.6086 4.44638C68.6879 4.34703 68.7946 4.29102 68.9056 4.29102L75.8042 4.29102C75.9173 4.29102 76.0262 4.32695 76.116 4.39354C76.1382 4.40833 76.1593 4.4263 76.1784 4.44533L76.1794 4.44638L77.472 5.74003L77.4678 4.81947C77.4678 4.52882 77.7056 4.29102 77.9962 4.29102Z" fill="#A1A3A8"/>
</g>
<defs>
<clipPath id="clip0">
<rect width="84.3822" height="20" fill="white" transform="translate(0.234497)"/>
</clipPath>
</defs>
</svg>
