<svg width="77" height="24" viewBox="0 0 77 24" fill="none" xmlns="http://www.w3.org/2000/svg">
    <path fill-rule="evenodd" clip-rule="evenodd" d="M70.9848 1.61867C70.9964 2.5227 70.2453 3.27349 69.3317 3.27092C68.4387 3.26846 67.7028 2.5412 67.6917 1.65027C67.6803 0.743309 68.4283 -0.00338359 69.3448 1.15324e-05C70.2437 0.00340665 70.9734 0.723641 70.9848 1.61867ZM69.5673 16.4422C67.0382 16.4963 64.9381 14.3733 64.9024 11.9059C64.865 9.32347 67.0255 7.26591 69.4238 7.21803C71.9083 7.16839 74.0944 9.2304 74.1344 11.7625C74.1739 14.2661 72.0947 16.4439 69.5673 16.4422ZM76.4014 10.4403C75.7211 7.16874 72.898 4.74685 69.3281 4.81334C67.7515 4.84273 66.3063 5.36289 65.0722 6.38751C63.28 7.87586 62.4395 9.8174 62.5015 12.1117C62.5404 13.5541 62.9948 14.9043 63.9036 16.0675C63.9195 16.0877 63.9379 16.1071 63.9567 16.127C64.0284 16.2027 64.106 16.2846 64.0684 16.4401C63.9005 16.4401 63.7323 16.4407 63.5638 16.4412C63.1828 16.4425 62.8004 16.4438 62.418 16.4386C62.2469 16.4362 62.0757 16.4388 61.9044 16.4415H61.9044C61.5223 16.4474 61.1402 16.4533 60.7593 16.4028L60.7274 16.3943C60.6881 16.3479 60.6469 16.3044 60.5789 16.3062C60.2845 15.9974 60.2862 15.6143 60.2878 15.2337V15.2337C60.2879 15.1962 60.2881 15.1587 60.288 15.1213C60.2836 13.7513 60.28 12.3814 60.2763 11.0115V11.0113V11.0112V11.011V11.0108V11.0107L60.2763 10.9959C60.2721 9.40889 60.2679 7.82185 60.2625 6.23485C60.2621 6.04109 60.2575 5.84289 60.2177 5.65463C60.0751 4.98404 59.3548 4.56761 58.7003 4.76417C58.0947 4.94599 57.792 5.38185 57.7905 6.08979C57.7867 8.01223 57.784 9.93466 57.7813 11.8571C57.7798 12.9425 57.7782 14.0278 57.7765 15.1132C57.7746 16.2419 57.5153 16.477 56.3344 16.4414C55.9161 16.4289 55.7139 16.2375 55.6188 15.8318C55.5744 15.6413 55.5568 15.4492 55.5567 15.2533C55.556 14.1311 55.5532 13.0087 55.5475 11.8864C55.5473 11.8421 55.5476 11.7976 55.5478 11.7532C55.5489 11.529 55.55 11.3044 55.4956 11.0837C55.2303 8.51625 53.9229 6.64835 51.6676 5.43652C50.5512 4.83664 49.3386 4.61619 48.0762 4.61678C43.4854 4.61879 38.8947 4.61819 34.304 4.61759C31.9635 4.61728 29.6231 4.61697 27.2827 4.61701C27.2538 4.61701 27.2247 4.61596 27.1956 4.61491C27.0905 4.61111 26.9848 4.60729 26.8841 4.65295C26.8659 4.65669 26.8475 4.65976 26.8292 4.66282C26.7895 4.66943 26.7498 4.67603 26.7125 4.68948C26.0926 4.91356 25.7727 5.45748 25.888 6.0871C25.9917 6.65432 26.4771 7.03961 27.1048 7.04558C27.3269 7.04757 43.997 7.05682 48.0688 7.04066C49.2489 7.03598 50.3133 7.33416 51.259 8.03777C53.3915 9.62411 53.7962 12.6092 51.9821 14.6387C50.9845 15.7545 49.7205 16.3027 48.2061 16.3006C41.3648 16.2913 27.1781 16.2716 27.105 16.2709C26.3829 16.2637 25.8292 16.7797 25.8115 17.4726C25.7941 18.1535 26.3436 18.7118 27.0559 18.7275C27.2052 18.7308 34.5692 18.7284 41.1969 18.7261L41.2139 18.7261C43.8212 18.7252 46.3135 18.7244 48.2064 18.724C48.4606 18.724 48.7163 18.7218 48.9691 18.6962C50.4636 18.5458 51.8085 18.0283 52.9582 17.0432L52.9581 17.0433C53.0811 17.1455 53.0641 17.2721 53.0473 17.3969C53.0403 17.4484 53.0334 17.4997 53.0364 17.5488C53.0702 18.1055 53.2412 18.5725 53.7807 18.832C54.0166 18.9456 54.2673 18.9647 54.5239 18.9643L55.0255 18.9637C56.367 18.9621 57.7084 18.9605 59.0499 18.9633C60.8951 18.9674 62.7401 18.9526 64.5852 18.9378H64.5853H64.5854H64.5856H64.5857H64.5858C65.1769 18.933 65.7679 18.9283 66.359 18.9242C66.8972 18.9205 67.4352 18.9077 67.9732 18.8949L67.9734 18.8949H67.9735H67.9736H67.9736H67.9737H67.9738C68.525 18.8817 69.0762 18.8685 69.6277 18.8653C69.7754 18.8645 70.8092 18.7184 71.1731 18.6398C74.9091 17.8327 77.1358 13.9726 76.4014 10.4403ZM2.93328 11.6926C2.93375 9.31226 5.01753 7.03144 7.53566 7.1025C10.0709 7.01645 12.1744 9.30523 12.1673 11.7083C12.16 14.1494 10.0303 16.3102 7.56481 16.3173C5.07747 16.3246 2.93293 14.151 2.93328 11.6926ZM23.7201 5.73134C23.6254 4.87389 22.7182 4.37247 21.9474 4.75565C21.4497 5.00303 21.2578 5.42847 21.2558 5.96829C21.2537 6.56453 21.2485 7.16078 21.2433 7.75702V7.75704V7.75706V7.75708V7.7571V7.75712C21.2355 8.64232 21.2278 9.52752 21.2302 10.4126C21.2315 10.8987 21.2292 11.3847 21.2269 11.8707V11.8709C21.2218 12.972 21.2167 14.0731 21.2529 15.1742C21.2822 16.0613 20.8924 16.3941 20.0045 16.2931C19.9366 16.2853 19.8697 16.2675 19.8029 16.2498C19.7829 16.2444 19.763 16.2391 19.743 16.2341C19.452 16.1603 19.2862 15.9722 19.2232 15.68C19.1691 15.4291 19.1574 15.1767 19.1572 14.9213C19.1545 11.9767 19.1497 9.03225 19.1449 6.08764L19.1449 6.07883L19.1449 6.07003C19.1448 6.04479 19.145 6.01948 19.1452 5.99415V5.9941C19.1459 5.89939 19.1466 5.80436 19.135 5.71108C19.0319 4.87706 18.1434 4.38371 17.3855 4.74465C16.8453 5.00197 16.6716 5.46137 16.6711 6.03397C16.6703 7.08669 16.6644 8.1394 16.6586 9.19212V9.19218V9.19223V9.19229V9.19234V9.19239C16.6528 10.2202 16.6471 11.2481 16.6461 12.276C16.6459 12.4275 16.6456 12.5791 16.6454 12.7306C16.6438 13.5371 16.6423 14.3435 16.6642 15.1505C16.685 15.9144 16.6034 16.0696 15.9914 16.297H12.971C12.969 16.2708 12.9666 16.2523 12.9648 16.2391C12.9623 16.2198 12.9613 16.2116 12.9648 16.2067L13.0235 16.1232L13.0236 16.1231C13.107 16.0042 13.1905 15.8854 13.2781 15.7698C14.0524 14.7484 14.4365 13.5668 14.5421 12.3185C14.7097 10.3388 14.1705 8.53384 12.8202 7.05754C10.9117 4.97118 8.54015 4.25996 5.78015 4.91745C2.24957 5.75838 0.0195627 9.32408 0.627875 12.8489C0.910255 14.4853 1.65168 15.8657 2.89219 16.9711C3.92571 17.8921 5.14362 18.4203 6.50296 18.6431C6.53766 18.6488 6.57454 18.6505 6.61175 18.6522C6.73421 18.6577 6.86028 18.6634 6.9243 18.8137L5.9973 19.7442L4.13773 21.6111C4.12959 21.6194 4.12243 21.6285 4.11528 21.6376L4.10893 21.6457C3.73125 22.1183 3.75068 22.8131 4.15365 23.254C4.57898 23.7193 5.26877 23.7925 5.78389 23.4181C5.90756 23.3281 6.01801 23.2185 6.12732 23.11L6.14986 23.0877C6.40911 22.8309 6.66848 22.5742 6.92785 22.3175L6.92792 22.3174L6.92794 22.3174L6.92797 22.3173L6.928 22.3173L6.92803 22.3173L6.92806 22.3172C8.02042 21.2361 9.11281 20.155 10.196 19.0647C10.405 18.8543 10.6147 18.7653 10.9055 18.7784C11.5033 18.8055 12.1021 18.8192 12.7006 18.8177C14.8147 18.8121 16.9288 18.8032 19.0429 18.7943C19.9537 18.7905 20.8645 18.7867 21.7753 18.7831C21.856 18.7828 21.9368 18.7844 22.0176 18.786H22.0177H22.0177H22.0178H22.0178H22.0179C22.1467 18.7885 22.2755 18.791 22.4041 18.7858C23.2456 18.7523 23.7217 18.2586 23.7284 17.4127C23.7359 16.4541 23.7428 15.4957 23.742 14.5371C23.7402 12.3653 23.7361 10.1935 23.732 8.02165V8.02157V8.02149V8.02142V8.02134V8.02126L23.7284 6.04545L23.7285 5.98369V5.98361V5.98359C23.7289 5.89922 23.7293 5.81468 23.7201 5.73134ZM20.2717 21.8016C20.7812 20.8424 21.4601 20.4639 22.2601 20.6666C23.012 20.8571 23.5329 21.51 23.5318 22.261C23.5308 23.0142 22.9881 23.6933 22.2586 23.8542C21.4017 24.0433 20.7622 23.6742 20.2627 22.685C20.0607 23.1801 19.7704 23.5763 19.2669 23.7767C18.92 23.9149 18.5685 23.9339 18.2113 23.841C17.5102 23.6588 16.9918 22.9679 17.0034 22.2399C17.0152 21.5 17.5186 20.8683 18.2518 20.6732C19.0616 20.4578 19.7133 20.8167 20.2717 21.8016ZM58.8023 20.7083C57.9558 20.5215 57.27 20.9063 56.816 21.8541C56.2494 20.8653 55.6125 20.5171 54.7814 20.7126C54.1063 20.8716 53.5871 21.5001 53.5534 22.1992C53.5163 22.9706 53.9515 23.6183 54.6668 23.8587C55.0202 23.9776 55.3724 23.9742 55.7232 23.8516C56.2444 23.6693 56.5764 23.2888 56.7769 22.7502C57.3806 23.7747 58.0455 24.1209 58.8672 23.8782C59.6183 23.6563 60.0779 23.0137 60.0494 22.2252C60.0236 21.5032 59.4959 20.8614 58.8023 20.7083ZM13.9115 20.6173C13.0155 20.6278 12.2999 21.3553 12.299 22.2567C12.298 23.1761 13.0418 23.9176 13.9508 23.9035C14.849 23.8897 15.5623 23.1639 15.5638 22.2622C15.5653 21.3424 14.826 20.6065 13.9115 20.6173ZM48.4481 12.2669C48.6215 12.2713 48.7948 12.2758 48.9529 12.1569C49.2389 11.9418 49.3221 11.6597 49.2586 11.3244C49.2045 11.0397 48.9478 10.8027 48.6323 10.7576C48.5081 10.7398 48.3809 10.7416 48.254 10.7434C48.2156 10.7439 48.1773 10.7444 48.139 10.7444C41.9389 10.744 35.7388 10.744 29.5386 10.744C29.5058 10.744 29.4728 10.7428 29.4399 10.7416C29.3675 10.7391 29.2951 10.7365 29.2245 10.7463C28.9602 10.7833 28.8621 10.6653 28.8128 10.4109C28.7099 9.87963 28.5026 9.38136 28.2488 8.90277C28.2393 8.8849 28.2283 8.86725 28.2172 8.84938C28.1737 8.7793 28.1281 8.70579 28.16 8.60224C28.258 8.5331 28.371 8.53998 28.4828 8.54679C28.5164 8.54883 28.5499 8.55087 28.5829 8.55085C30.5206 8.55026 32.4584 8.55106 34.3962 8.55185C39.0779 8.55376 43.7596 8.55567 48.4413 8.5382C49.8737 8.53282 51.2149 9.492 51.4714 11.0587C51.6985 12.4468 50.9278 13.7963 49.5692 14.3163C49.218 14.4509 48.8515 14.5074 48.4714 14.5072C43.731 14.5046 38.9907 14.5044 34.2504 14.5043C32.4012 14.5043 30.552 14.5042 28.7028 14.504C28.623 14.504 28.5432 14.4994 28.4565 14.4944C28.4144 14.4919 28.3708 14.4894 28.3247 14.4873C28.3365 14.3264 28.3878 14.2142 28.4358 14.1093C28.4506 14.0769 28.4651 14.0452 28.478 14.0129C28.6508 13.5818 28.8051 13.1471 28.8702 12.6826C28.9279 12.271 28.9399 12.2708 29.3388 12.2666L29.3436 12.2665C29.4048 12.2658 29.4659 12.266 29.527 12.2662C29.5558 12.2663 29.5845 12.2664 29.6133 12.2664L31.9587 12.2664C37.4219 12.2664 42.8852 12.2665 48.3485 12.2652C48.3816 12.2652 48.4149 12.2661 48.4481 12.2669Z" fill="#A1A3A8"/>
</svg>
