<svg width="183" height="24" viewBox="0 0 183 24" fill="none" xmlns="http://www.w3.org/2000/svg">
<path fill-rule="evenodd" clip-rule="evenodd" d="M61.2519 15.2195H66.5202V8.19512H61.2519C60.3429 8.19512 59.4958 9.0443 59.4958 9.95122V13.4634C59.4958 14.3705 60.3429 15.2195 61.2519 15.2195ZM82.3251 15.2195H87.5934V8.19512H82.3251C81.416 8.19512 80.569 9.0443 80.569 9.95122V13.4634C80.569 14.3705 81.416 15.2195 82.3251 15.2195ZM70.0324 5.56098V17.8537C70.0324 18.2411 69.5429 18.7317 69.1543 18.7317L67.3985 18.7502C67.0097 18.7502 66.5202 18.2412 66.5202 17.8537V17.2683L65.7234 18.2251C65.4807 18.5551 64.8818 18.7317 64.4714 18.7317H61.2519C58.427 18.7317 55.9836 16.2818 55.9836 13.4634V9.95122C55.9836 7.13287 58.427 4.68293 61.2519 4.68293H69.1543C69.5424 4.68293 70.0324 5.17398 70.0324 5.56098ZM91.1056 5.56098V17.8537C91.1056 18.2411 90.6161 18.7317 90.2275 18.7317L88.4717 18.7502C88.0829 18.7502 87.5934 18.2412 87.5934 17.8537V17.2683L86.7966 18.2251C86.5539 18.5551 85.9549 18.7317 85.5446 18.7317H82.3251C79.5001 18.7317 77.0568 16.2818 77.0568 13.4634V9.95122C77.0568 7.13287 79.5001 4.68293 82.3251 4.68293H90.2275C90.6156 4.68293 91.1056 5.17398 91.1056 5.56098ZM32.569 8.19512H27.3007C26.3915 8.19512 25.5446 9.0443 25.5446 9.95122V13.4634C25.5446 14.3706 26.3915 15.2195 27.3007 15.2195H32.569V8.19512ZM36.0812 5.56098V18.7317V19.0244C36.0812 21.8427 33.6378 24 30.8129 24H28.0982C27.6943 24 27.3136 23.8111 27.07 23.4895L25.5247 21.4492C25.2681 21.1106 25.4117 20.4878 25.8373 20.4878H30.8129C31.7219 20.4878 32.569 19.9313 32.569 19.0244V18.7317H27.3007C24.4759 18.7317 22.0324 16.2818 22.0324 13.4634V9.95122C22.0324 7.133 24.4759 4.68293 27.3007 4.68293H30.5202C30.9231 4.68293 31.3622 5.00703 31.6466 5.26829L32.569 6.14634V5.56098C32.569 5.17411 33.0594 4.68293 33.447 4.68293H35.2031C35.5916 4.68293 36.0812 5.17332 36.0812 5.56098ZM4.47142 13.4634C4.47142 14.3703 5.31847 15.2195 6.22752 15.2195H11.4958V8.19512H6.22752C5.31847 8.19512 4.47142 9.0443 4.47142 9.95122V13.4634ZM14.13 0C14.5187 0 15.008 0.490521 15.008 0.878049V17.8537C15.008 18.2411 14.5187 18.7317 14.13 18.7317H12.3739C11.9853 18.7317 11.4958 18.2413 11.4958 17.8537V17.2683L10.5751 18.2535C10.3257 18.5306 9.84463 18.7317 9.44703 18.7317H6.22752C3.40257 18.7317 0.959229 16.2818 0.959229 13.4634V9.97802C0.959229 7.15967 3.40257 4.68293 6.22752 4.68293H11.4958V0.878049C11.4958 0.490521 11.9853 0 12.3739 0H14.13ZM50.4226 11.7073L55.3107 5.52006C55.5826 5.18284 55.3422 4.68171 54.9085 4.68171H52.1127C51.9013 4.68171 51.7012 4.77664 51.5674 4.94015L46.6178 11.122V0.878049C46.6178 0.490521 46.1282 0 45.7397 0H43.9836C43.595 0 43.1056 0.490521 43.1056 0.878049V17.8537C43.1056 18.2412 43.595 18.7317 43.9836 18.7317H45.7397C46.1283 18.7317 46.6178 18.2412 46.6178 17.8537V12.2927L51.5701 18.4882C51.7036 18.6536 51.905 18.7502 52.1182 18.7502H54.911C55.3447 18.7502 55.5854 18.2488 55.3134 17.9117L50.4226 11.7073ZM38.7153 0C38.327 0 37.8373 0.490521 37.8373 0.878049V2.63415C37.8373 3.02167 38.327 3.5122 38.7153 3.5122H40.4714C40.8599 3.5122 41.3495 3.02167 41.3495 2.63415V0.878049C41.3495 0.490521 40.8599 0 40.4714 0H38.7153ZM38.7153 4.68293C38.327 4.68293 37.8373 5.17358 37.8373 5.56098V17.8537C37.8373 18.2411 38.4647 18.75 38.853 18.75L40.4714 18.7317C40.8599 18.7317 41.3495 18.2411 41.3495 17.8537V5.56098C41.3495 5.17358 40.8599 4.68293 40.4714 4.68293H38.7153ZM17.6422 0C17.2537 0 16.7641 0.490521 16.7641 0.878049V2.63415C16.7641 3.02167 17.2537 3.5122 17.6422 3.5122H19.3983C19.7867 3.5122 20.2763 3.02167 20.2763 2.63415V0.878049C20.2763 0.490521 19.7867 0 19.3983 0H17.6422ZM17.6422 4.68293C17.2537 4.68293 16.7641 5.17358 16.7641 5.56098V17.8537C16.7641 18.2411 17.2537 18.7317 17.6422 18.7317H19.3983C19.7867 18.7317 20.2763 18.2411 20.2763 17.8537V5.56098C20.2763 5.17358 19.7867 4.68293 19.3983 4.68293H17.6422ZM75.3007 0.878049V17.8537C75.3007 18.2411 74.8112 18.7317 74.4226 18.7317H72.6665C72.278 18.7317 71.7885 18.2411 71.7885 17.8537V0.878049C71.7885 0.490521 72.278 0 72.6665 0H74.4226C74.8112 0 75.3007 0.490521 75.3007 0.878049Z" fill="#A1A3A8"/>
<g clip-path="url(#clip0)">
<path fill-rule="evenodd" clip-rule="evenodd" d="M103.236 13.9065L101.298 8.16643L99.3605 13.9065H103.236ZM104.104 16.4955H98.473L97.6252 19.0243H94.6178L99.5629 4.97583H103.014L107.98 19.0243H104.952L104.104 16.4955Z" fill="#A1A3A8"/>
<path fill-rule="evenodd" clip-rule="evenodd" d="M112.136 7.62473V10.9562H117.626V13.6055H112.136V19.0242H109.351V4.97571H117.788V7.62473H112.136Z" fill="#A1A3A8"/>
<path fill-rule="evenodd" clip-rule="evenodd" d="M122.611 7.62473V10.9562H128.101V13.6055H122.611V19.0242H119.826V4.97571H128.263V7.62473H122.611Z" fill="#A1A3A8"/>
<path fill-rule="evenodd" clip-rule="evenodd" d="M130.301 19.0242H133.086V4.97571H130.301V19.0242Z" fill="#A1A3A8"/>
<path fill-rule="evenodd" clip-rule="evenodd" d="M143.884 16.375V19.0241H135.709V4.97559H138.495V16.375H143.884Z" fill="#A1A3A8"/>
<path fill-rule="evenodd" clip-rule="evenodd" d="M145.457 19.0242H148.242V4.97571H145.457V19.0242Z" fill="#A1A3A8"/>
<path fill-rule="evenodd" clip-rule="evenodd" d="M158.233 13.9066L156.295 8.16653L154.358 13.9066H158.233ZM159.102 16.4954H153.47L152.622 19.0242H149.615L154.56 4.97571H158.012L162.977 19.0242H159.949L159.102 16.4954Z" fill="#A1A3A8"/>
<path fill-rule="evenodd" clip-rule="evenodd" d="M172.664 7.62473H168.85V19.0242H166.064V7.62473H162.269V4.97571H172.664V7.62473Z" fill="#A1A3A8"/>
<path fill-rule="evenodd" clip-rule="evenodd" d="M182.957 16.375V19.0241H174.218V4.97559H182.856V7.62461H177.003V10.6152H182.352V13.2242H177.003V16.375H182.957Z" fill="#A1A3A8"/>
</g>
<defs>
<clipPath id="clip0">
<rect width="88.3396" height="14.0488" fill="white" transform="translate(94.6178 4.97559)"/>
</clipPath>
</defs>
</svg>
