<svg width="114" height="18" viewBox="0 0 114 18" fill="none" xmlns="http://www.w3.org/2000/svg">
    <path fill-rule="evenodd" clip-rule="evenodd" d="M39.4968 9.00305V7.96832H30.5282V10.0381H37.4227C36.9303 13.3812 34.0251 15.9725 30.5268 15.9725C26.6838 15.9725 23.5573 12.8461 23.5573 9.00305C23.5573 5.16038 26.6838 2.03359 30.5268 2.03359C32.7792 2.03359 34.9042 3.13145 36.2112 4.96957L37.8635 3.79497C36.1767 1.42244 33.4341 0.00645585 30.5268 0.00645585C25.5658 0.00645585 21.5298 4.04208 21.5298 9.00305C21.5298 13.964 25.5658 18 30.5268 18C35.4878 18 39.5234 13.964 39.4968 9.00305ZM91.9291 15.7544V0.28083H89.958V17.7253H100.701V15.7544H91.9291ZM86.7774 0.28083L81.296 9.14328L75.8143 0.28083H73.4955L80.2993 11.2816V17.7253H82.2708V11.3168L89.0965 0.28083H86.7774ZM57.3713 16.4922C58.467 15.564 59.0459 14.204 59.0459 12.5599C59.0459 10.8874 58.3691 9.62102 57.0352 8.79503C55.9453 8.12039 54.4038 7.72945 52.184 7.56483C48.1398 7.19075 48.1394 5.47672 48.1394 4.91291C48.1394 3.13252 49.6949 1.98195 52.1023 1.98195C54.5422 1.98195 56.3825 3.24227 56.3825 4.91291H58.3644C58.3644 2.1125 55.672 0 52.1023 0C48.6021 0 46.1578 2.02032 46.1578 4.91291C46.1578 6.2941 46.7443 7.44468 47.8547 8.2409C48.8277 8.93813 50.2261 9.37534 52.0115 9.53924L52.0291 9.54104C56.6748 9.88356 57.0643 11.2791 57.0643 12.5599C57.0643 13.4031 57.0643 15.9704 52.3816 15.9704C49.46 15.9704 47.4196 14.4629 47.4196 12.3049H45.4377C45.4377 15.5769 48.3579 17.9519 52.3816 17.9519C54.5497 17.9519 56.2286 17.4609 57.3713 16.4922ZM113.62 2.15339V0.28083H102.672V17.7253H113.62V15.7544H104.643V9.98577H111.838V8.01458H104.643V2.15339H113.62ZM72.577 0.270787H59.0606V2.24198H64.8328V17.7296H66.804V2.24198H72.577V0.270787ZM41.468 17.7256H43.4392V0.28083H41.468V17.7256ZM17.5717 17.7256H19.5429V0.28083H17.5717V17.7256ZM0.36969 17.7253V0.28083H6.86285C11.6201 0.28083 15.5001 4.10879 15.584 8.84631C15.6708 13.7434 11.6405 17.7253 6.74305 17.7253H0.36969ZM2.34088 15.7541H6.75704C10.4645 15.7541 13.5615 12.8099 13.6153 9.10276C13.6698 5.33469 10.6205 2.25202 6.865 2.25202H2.34088V15.7541Z" fill="#A1A3A8"/>
</svg>
