<svg width="86" height="24" viewBox="0 0 86 24" fill="none" xmlns="http://www.w3.org/2000/svg">
<path fill-rule="evenodd" clip-rule="evenodd" d="M12.0121 5.64706H6.3825C3.27334 5.64706 0.752869 8.17533 0.752869 11.2941V12.7059C0.752869 15.8247 3.27334 18.3529 6.3825 18.3529H14.8269V0H12.0121V5.64706ZM12.0121 15.5294H6.3825C4.82792 15.5294 3.56769 14.2653 3.56769 12.7059V11.2941C3.56769 9.73472 4.82792 8.47059 6.3825 8.47059H12.0121V15.5294ZM16.2344 5.64706H19.0492V18.3529H16.2344V5.64706ZM20.4566 12.7059V11.2941C20.4566 8.17533 22.977 5.64706 26.0862 5.64706H34.5307V18.3529C34.5307 21.4717 32.0102 24 28.901 24H26.0862L24.5029 21.1765H28.901C30.4556 21.1765 31.7158 19.9123 31.7158 18.3529H26.0862C22.977 18.3529 20.4566 15.8247 20.4566 12.7059ZM26.0862 15.5294H31.7158V8.47059H26.0862C24.5316 8.47059 23.2714 9.73472 23.2714 11.2941V12.7059C23.2714 14.2653 24.5316 15.5294 26.0862 15.5294ZM82.3825 5.64706V15.5294H76.7529C75.1983 15.5294 73.938 14.2653 73.938 12.7059V5.64706H71.1232V12.7059C71.1232 15.8247 73.6437 18.3529 76.7529 18.3529H82.3825C82.3825 19.9123 81.1223 21.1765 79.5677 21.1765H75.1695L76.7529 24H79.5677C82.6768 24 85.1973 21.4717 85.1973 18.3529V5.64706H82.3825ZM55.6418 11.2941V12.7059C55.6418 15.8247 58.1622 18.3529 61.2714 18.3529H69.7158V5.64706H61.2714C58.1622 5.64706 55.6418 8.17533 55.6418 11.2941ZM66.901 15.5294H61.2714C59.7168 15.5294 58.4566 14.2653 58.4566 12.7059V11.2941C58.4566 9.73472 59.7168 8.47059 61.2714 8.47059H66.901V15.5294ZM40.1603 5.64706H48.6047C51.7139 5.64706 54.2343 8.17533 54.2343 11.2941V12.7059C54.2343 15.8247 51.7139 18.3529 48.6047 18.3529H42.9751V24H40.1603V5.64706ZM48.6047 15.5294C50.1593 15.5294 51.4195 14.2653 51.4195 12.7059V11.2941C51.4195 9.73472 50.1593 8.47059 48.6047 8.47059H42.9751V15.5294H48.6047ZM19.0492 0H16.2344V2.82353H19.0492V0ZM35.938 5.64706H38.7529V18.3529H35.938V5.64706ZM38.7529 0H35.938V2.82353H38.7529V0Z" fill="#A1A3A8"/>
</svg>
